<svg width="57" height="56" viewBox="0 0 57 56" fill="none" xmlns="http://www.w3.org/2000/svg">
<g clip-path="url(#clip0_1_1582)">
<mask id="mask0_1_1582" style="mask-type:luminance" maskUnits="userSpaceOnUse" x="0" y="0" width="57" height="56">
<path d="M56.5 28C56.5 12.536 43.964 0 28.5 0C13.036 0 0.5 12.536 0.5 28C0.5 43.464 13.036 56 28.5 56C43.964 56 56.5 43.464 56.5 28Z" fill="white"/>
</mask>
<g mask="url(#mask0_1_1582)">
<path d="M56.5 29C56.5 13.8122 44.6878 1 29.5 1C14.3122 1 1.5 13.8122 1.5 29C1.5 44.1878 14.3122 56 29.5 56C44.6878 56 56.5 44.1878 56.5 29Z" fill="#101111"/>
<path d="M26.5052 27L23.5072 26C23.4911 25.8643 23.5072 26.2564 23.5072 26C23.5072 24.6878 24.5212 22.92 25.5059 22C26.4906 21.0648 27.8567 21 29.5033 21C31.1337 21 31.549 21.1252 32.5013 22C33.4537 22.8597 34.5 24.733 34.5 26C34.5 27.8552 33.4713 28.8386 31.502 30L28.5039 32C27.3901 32.6637 26.6667 33.2911 26.5052 34H34.5V36H23.5072C23.5395 34.7632 23.9416 33.9352 24.5065 33C25.0876 32.0648 26.197 30.7843 27.5046 30L29.5033 29C30.9399 28.1403 32.5013 27.1765 32.5013 26C32.5013 25.276 32.0185 24.4977 31.502 24C30.9855 23.5023 30.4396 23 29.5033 23C28.5186 23 27.0218 23.442 26.5052 24C25.9887 24.558 26.5052 25.1101 26.5052 26C26.5052 26.1357 26.473 26.6983 26.5052 27Z" fill="white"/>
</g>
<path d="M55.5 28C55.5 13.0883 43.4117 1 28.5 1C13.5883 1 1.5 13.0883 1.5 28C1.5 42.9117 13.5883 55 28.5 55C43.4117 55 55.5 42.9117 55.5 28Z" stroke="white" stroke-width="2"/>
</g>
<defs>
<clipPath id="clip0_1_1582">
<rect width="57" height="56" fill="white"/>
</clipPath>
</defs>
</svg>
