<svg width="60" height="59" viewBox="0 0 60 59" fill="none" xmlns="http://www.w3.org/2000/svg">
<path d="M41.9171 54.73C47.7711 51.9561 52.4821 47.2382 55.2475 41.3802C58.0129 35.5222 58.6616 28.8865 57.083 22.6038C55.5045 16.3212 51.7963 10.7802 46.5903 6.92509C41.3844 3.06997 35.0028 1.1392 28.5329 1.46177C22.063 1.78433 15.9051 4.34027 11.1084 8.69409C6.3117 13.0479 3.17304 18.9302 2.22719 25.3387C1.28134 31.7473 2.58682 38.2855 5.92119 43.8394C9.25556 49.3933 14.4125 53.6192 20.5134 55.7971L29.9271 29.427L41.9171 54.73Z" fill="url(#paint0_linear_1_1577)"/>
<defs>
<linearGradient id="paint0_linear_1_1577" x1="35.0183" y1="56.9753" x2="31.6893" y2="1.49823" gradientUnits="userSpaceOnUse">
<stop stop-color="#7A87FB"/>
<stop offset="1" stop-color="#FFD49C"/>
</linearGradient>
</defs>
</svg>
