<svg width="55" height="56" viewBox="0 0 55 56" fill="none" xmlns="http://www.w3.org/2000/svg">
<path d="M54.3958 17.3507C51.932 11.3596 47.4672 6.40809 41.7619 3.33988C36.0567 0.271662 29.464 -0.723412 23.1074 0.524199C16.7507 1.77181 11.0233 5.18492 6.90098 10.182C2.77869 15.179 0.516577 21.4508 0.500091 27.9287C0.483605 34.4067 2.71376 40.6899 6.81057 45.7079C10.9074 50.7258 16.6174 54.168 22.9676 55.448C29.3178 56.7279 35.9154 55.7664 41.6362 52.7273C47.357 49.6882 51.847 44.7595 54.3413 38.7809L28.5 28L54.3958 17.3507Z" fill="url(#paint0_linear_1_1570)"/>
<defs>
<linearGradient id="paint0_linear_1_1570" x1="56.2769" y1="24.3575" x2="0.701696" y2="24.7785" gradientUnits="userSpaceOnUse">
<stop stop-color="#7A87FB"/>
<stop offset="1" stop-color="#FFD49C"/>
</linearGradient>
</defs>
</svg>
