<svg width="21" height="21" viewBox="0 0 21 21" fill="none" xmlns="http://www.w3.org/2000/svg">
<path fill-rule="evenodd" clip-rule="evenodd" d="M10.5 0.602295C4.97656 0.602295 0.5 5.07886 0.5 10.6023C0.5 15.0281 3.36328 18.7664 7.33594 20.0906C7.83594 20.1765 8.02344 19.8796 8.02344 19.614C8.02344 19.3757 8.01172 18.5906 8.01172 17.7507C5.5 18.2117 4.84766 17.1375 4.64844 16.575C4.53516 16.2859 4.04688 15.3992 3.625 15.1609C3.27344 14.9734 2.77344 14.5125 3.61328 14.4968C4.40234 14.4851 4.96484 15.2234 5.15234 15.5203C6.05078 17.032 7.48828 16.6062 8.06641 16.3445C8.15234 15.696 8.41797 15.2585 8.70312 15.0085C6.47656 14.7585 4.15234 13.8953 4.15234 10.071C4.15234 8.98511 4.53906 8.08276 5.17578 7.38354C5.07422 7.13354 4.72656 6.11011 5.27734 4.73511C5.27734 4.73511 6.11328 4.47339 8.02734 5.75854C8.82812 5.53198 9.67578 5.42261 10.5273 5.42261C11.3789 5.42261 12.2266 5.53589 13.0273 5.75854C14.9414 4.45776 15.7773 4.73511 15.7773 4.73511C16.3281 6.11011 15.9766 7.13354 15.8789 7.38354C16.5156 8.08276 16.9023 8.96948 16.9023 10.071C16.9023 13.907 14.5664 14.7585 12.3398 15.0085C12.7031 15.321 13.0156 15.9226 13.0156 16.8601C13.0156 18.196 13.0039 19.2742 13.0039 19.6101C13.0039 19.8718 13.1914 20.1843 13.6914 20.0867C17.6367 18.7664 20.5 15.0164 20.5 10.6023C20.5 5.07886 16.0234 0.602295 10.5 0.602295Z" fill="white"/>
</svg>
