<svg width="20" height="20" viewBox="0 0 20 20" fill="none" xmlns="http://www.w3.org/2000/svg">
<g clip-path="url(#clip0_1_1535)">
<path d="M1.66675 10.1699C1.66675 8.26287 1.66675 7.30936 2.09942 6.51891C2.53208 5.72847 3.32254 5.23789 4.90344 4.25673L6.57011 3.22235C8.24124 2.1852 9.0768 1.66663 10.0001 1.66663C10.9234 1.66663 11.7589 2.1852 13.4301 3.22235L15.0967 4.25673C16.6776 5.23789 17.4681 5.72847 17.9007 6.51891C18.3334 7.30936 18.3334 8.26287 18.3334 10.1699V11.4374C18.3334 14.6882 18.3334 16.3135 17.3571 17.3234C16.3808 18.3333 14.8094 18.3333 11.6667 18.3333H8.33341C5.19072 18.3333 3.61937 18.3333 2.64306 17.3234C1.66675 16.3135 1.66675 14.6882 1.66675 11.4374V10.1699Z" stroke="white" stroke-width="1.5"/>
<path d="M10 12.5L10 15" stroke="white" stroke-width="1.5" stroke-linecap="round"/>
</g>
<defs>
<clipPath id="clip0_1_1535">
<rect width="20" height="20" fill="white"/>
</clipPath>
</defs>
</svg>
