<svg width="21" height="24" viewBox="0 0 21 24" fill="none" xmlns="http://www.w3.org/2000/svg">
<g clip-path="url(#clip0_215_104)">
<path d="M4.97668 20.979H0.830283V7.54287H4.97668V20.979ZM2.90125 5.71006C1.57565 5.71006 0.5 4.60498 0.5 3.2708C0.5 1.93662 1.57565 0.854004 2.90125 0.854004C4.22685 0.854004 5.3025 1.93662 5.3025 3.2708C5.3025 4.60498 4.22685 5.71006 2.90125 5.71006ZM20.4955 20.979H16.3581V14.4384C16.3581 12.8796 16.3268 10.8806 14.2023 10.8806C12.0465 10.8806 11.7162 12.5741 11.7162 14.3261V20.979H7.57431V7.54287H11.5511V9.37568H11.6091C12.1626 8.32002 13.515 7.20596 15.5324 7.20596C19.7278 7.20596 20.5 9.98662 20.5 13.5983V20.979H20.4955Z" fill="white"/>
</g>
<defs>
<clipPath id="clip0_215_104">
<rect width="20" height="23" fill="white" transform="translate(0.5 0.854004)"/>
</clipPath>
</defs>
</svg>
