<svg width="50" height="50" viewBox="0 0 50 50" fill="none" xmlns="http://www.w3.org/2000/svg">
<defs>
    <linearGradient id="grad1" x1="0%" x2="100%" y1="0%" y2="0%">
      <stop offset="0%" stop-color="#ffd49c" />
      <stop offset="100%" stop-color="#7a87fb" />
    </linearGradient>
  </defs>
<path d="M30.127 42.044C30.2937 42.044 30.4529 42.0365 30.6044 42.0213H34.197C35.061 42.0213 35.7659 41.271 35.7659 40.3387C35.7659 39.4292 35.061 38.6561 34.197 38.6561H29.4221V38.6789H27.3302C25.6022 38.6789 24.1924 37.2691 24.1924 35.5411C24.1924 33.813 25.6022 32.3806 27.3302 32.3806H31.0819V32.4033H35.8568C36.7209 32.4033 37.4257 31.6529 37.4257 30.7662C37.4257 29.8794 36.7209 29.1518 35.8568 29.1518H31.0819H9.25383C7.25292 29.1518 5.63855 27.5374 5.63855 25.5365C5.63855 23.6493 7.13923 22.0804 9.00372 21.944H12.0051C12.9828 21.944 13.8014 21.1482 13.8014 20.1477C13.8014 19.1473 12.9828 18.3514 12.0051 18.3514H6.54806H4.13787C3.11468 18.3514 2.18244 17.9422 1.52305 17.26C0.840918 16.5779 0.431641 15.6684 0.431641 14.6452C0.431641 13.622 0.840918 12.6898 1.52305 12.0077C2.18244 11.3255 3.11468 10.9162 4.13787 10.9162H8.45802H13.915C14.8928 10.9162 15.7113 10.1204 15.7113 9.11998C15.7113 8.11952 14.8928 7.32371 13.915 7.32371H12.1642C10.5499 7.30097 9.25383 5.6866 9.25383 3.70843C9.25383 1.73026 10.5726 0.115885 12.1642 0.115885C21.714 0.115885 30.991 0.00219727 40.5863 0.00219727C41.7004 0.00219727 42.7236 0.456949 43.4512 1.18455C44.1788 1.91216 44.6336 2.93535 44.6336 4.04949C44.6336 5.16364 44.1788 6.18683 43.4512 6.91443C42.7236 7.64203 41.7004 8.09679 40.5863 8.09679H27.9214C21.1911 8.61975 19.5312 11.1436 19.5312 15.2364C19.5312 18.9199 21.5246 20.7616 25.5112 20.7616H33.2193C43.9211 20.7616 49.272 25.347 49.272 34.5179C49.272 44.8408 42.4659 50.0022 28.8537 50.0022C27.5349 50.0022 26.2464 49.9643 24.9883 49.8885H9.50395C7.34388 49.8885 5.57034 48.115 5.57034 45.9549C5.57034 43.7948 7.34388 42.044 9.50395 42.044H30.127V42.044Z" fill="url(#grad1)"/>
</svg>
