<svg width="20" height="17" viewBox="0 0 20 17" fill="none" xmlns="http://www.w3.org/2000/svg">
<g clip-path="url(#clip0_215_115)">
<path d="M13.0261 0.373112C12.9305 0.32849 12.854 0.373112 12.854 0.481478V13.4153L18.5209 16.2456C18.8014 16.3859 19.0309 16.2456 19.0309 15.9269V3.47749C19.0309 3.41375 18.999 3.35638 18.9417 3.33088L13.0261 0.373112Z" fill="white"/>
<path d="M6.67676 10.3301L12.7517 0.456025C12.809 0.366782 12.9301 0.328535 13.0258 0.379531L18.8967 3.3118C18.9668 3.35005 18.9987 3.43929 18.954 3.50941L12.8537 13.4154L6.67676 10.3301Z" fill="#F8F8F8"/>
<path d="M1.182 0.634501C0.805907 0.443266 0.678417 0.583505 0.901524 0.946851L6.67682 10.3301L12.8537 13.4218L6.71507 3.44566C6.68957 3.40103 6.65133 3.36916 6.6067 3.34366L1.182 0.634501Z" fill="#F2F2F2"/>
<path d="M6.67689 15.9332C6.67689 16.2456 6.44741 16.3922 6.16693 16.252L0.844223 13.5874C0.652988 13.4918 0.5 13.2432 0.5 13.0328V0.672681C0.5 0.462323 0.652988 0.366705 0.844223 0.462322L6.6004 3.3436C6.64502 3.3691 6.67689 3.41372 6.67689 3.46471V15.9332Z" fill="#EDEDED"/>
</g>
<defs>
<clipPath id="clip0_215_115">
<rect width="19" height="16" fill="white" transform="translate(0.5 0.354004)"/>
</clipPath>
</defs>
</svg>
